<svg width="62" height="77" viewBox="0 0 62 77" fill="#D1D1FA" xmlns="http://www.w3.org/2000/svg">
<path d="M61.9859 0.253521C61.6922 2.9951 61.472 5.66439 61.3253 8.26173C61.2518 10.7868 61.2152 12.7348 61.2152 14.1056C61.2152 15.8371 61.2518 17.4605 61.3253 18.9755C61.3987 20.4906 61.472 21.8254 61.5455 22.9797H59.0138C58.618 19.0895 58.2123 18.0448 57.5682 16.3861C57.3762 15.8915 57.1628 15.3423 56.9223 14.6467C55.9867 11.9412 54.831 10.5344 52.6295 9.2358C50.428 7.93704 47.0157 7.28783 42.3926 7.28783H36.4486L36.3395 26.1179H39.4755C42.1173 26.1179 44.0985 25.9016 45.4195 25.4687C46.7403 25.0357 47.6209 24.206 48.0613 22.9796C48.5015 21.681 48.7952 19.8051 48.9418 17.3522H51.1433C50.9966 19.0115 50.9231 21.1037 50.9231 23.6289C50.8497 26.0819 50.8131 28.5711 50.8131 31.0961C50.8131 33.9098 50.8497 36.5432 50.9231 38.9962C50.9231 41.4491 50.9966 43.4331 51.1433 44.9482H48.9418C48.7952 42.4953 48.5015 40.6555 48.0613 39.429C47.6209 38.1304 46.7403 37.2647 45.4195 36.8318C44.0985 36.3988 42.1173 36.1825 39.4755 36.1825H36.2812L36.1183 64.3197C36.1183 67.2057 36.3752 69.37 36.8888 70.813C37.4758 72.2558 38.5766 73.2297 40.191 73.7349C41.8057 74.24 44.1538 74.5647 47.2358 74.7089V76.8732C45.3281 76.729 42.9063 76.6567 39.971 76.6567C37.0356 76.5846 34.0635 76.5486 31.0549 76.5486C27.7527 76.5486 24.634 76.5846 21.6986 76.6567C18.8368 76.6567 16.5251 76.729 14.7641 76.8732V74.7089C17.8461 74.5647 20.1942 74.24 21.8087 73.7349C23.4232 73.2297 24.4871 72.2558 25.0008 70.813C25.5879 69.37 25.8814 67.2057 25.8814 64.3197L26.0445 36.1825H22.2489C19.5337 36.1825 17.5523 36.399 16.3049 36.8318C14.9839 37.2647 14.1033 38.1304 13.6631 39.4292C13.1494 40.6557 12.8558 42.4953 12.7825 44.9484H10.5809C10.6544 43.4333 10.7278 41.4493 10.8011 38.9963C10.8746 36.5432 10.9112 33.91 10.9112 31.0961C10.9112 28.5711 10.8746 26.0821 10.8011 23.6289C10.7278 21.1039 10.6544 19.0115 10.5809 17.3522H12.7825C12.8558 19.8053 13.1494 21.681 13.6631 22.9797C14.1033 24.2062 14.9839 25.0359 16.3049 25.4687C17.5523 25.9016 19.5337 26.1181 22.2489 26.1181H26.1026L26.2117 7.28783H20.2677C15.7179 7.28783 12.3056 7.93704 10.0308 9.2358C7.82935 10.5344 6.45323 11.9412 5.07728 14.6467C4.83011 15.4568 4.59743 16.0708 4.37923 16.6466C3.81993 18.1219 3.35556 19.3471 2.98613 22.9797H0.454419C0.601158 21.8254 0.674446 20.4906 0.674446 18.9755C0.747899 17.4605 0.784541 15.8371 0.784541 14.1056C0.784541 12.7348 0.711257 10.7868 0.564352 8.26173C0.491066 5.66439 0.307516 2.9951 0.0140381 0.253521C3.09606 0.325637 6.43508 0.397752 10.0308 0.469868C13.6999 0.541984 17.369 0.578043 21.0382 0.578043H40.9616C44.6307 0.578043 48.3 0.541984 51.969 0.469868C55.6381 0.397752 58.9771 0.325637 61.9859 0.253521Z" fill="inherit"/>
</svg>
